<?xml version="1.0" encoding="UTF-8" standalone="no"?>
<svg
   xmlns:dc="http://purl.org/dc/elements/1.1/"
   xmlns:cc="http://creativecommons.org/ns#"
   xmlns:rdf="http://www.w3.org/1999/02/22-rdf-syntax-ns#"
   xmlns:svg="http://www.w3.org/2000/svg"
   xmlns="http://www.w3.org/2000/svg"
   xmlns:sodipodi="http://sodipodi.sourceforge.net/DTD/sodipodi-0.dtd"
   xmlns:inkscape="http://www.inkscape.org/namespaces/inkscape"
   width="480pt"
   height="290pt"
   viewBox="0 0 480 290"
   version="1.1"
   id="svg2"
   inkscape:version="0.91 r13725"
   sodipodi:docname="SVGlogo.svg">
  <metadata
     id="metadata16">
    <rdf:RDF>
      <cc:Work
         rdf:about="">
        <dc:format>image/svg+xml</dc:format>
        <dc:type
           rdf:resource="http://purl.org/dc/dcmitype/StillImage" />
      </cc:Work>
    </rdf:RDF>
  </metadata>
  <defs
     id="defs14" />
  <sodipodi:namedview
     pagecolor="#ffffff"
     bordercolor="#666666"
     borderopacity="1"
     objecttolerance="10"
     gridtolerance="10"
     guidetolerance="10"
     inkscape:pageopacity="0"
     inkscape:pageshadow="2"
     inkscape:window-width="1143"
     inkscape:window-height="480"
     id="namedview12"
     showgrid="false"
     inkscape:zoom="1.3859293"
     inkscape:cx="288.67597"
     inkscape:cy="238.3641"
     inkscape:window-x="0"
     inkscape:window-y="36"
     inkscape:window-maximized="0"
     inkscape:current-layer="svg2" />
  <g
     id="surface2"
     transform="matrix(1,0,0,1,0,0)">
    <path
       style="stroke:none;fill-rule:evenodd;fill:rgb(69.803922%,57.254902%,18.823529%);fill-opacity:1"
       d="M 248.949219 114.199219 L 216.25 77.601562 C 212.050781 80 208.285156 82.984375 204.949219 86.550781 C 201.648438 90.082031 198.917969 94.082031 196.75 98.550781 C 194.617188 103.015625 193.199219 107.832031 192.5 113 C 191.699219 119.601562 192.148438 125.917969 193.851562 131.949219 C 195.550781 137.984375 198.285156 143.449219 202.050781 148.351562 C 205.816406 153.25 210.398438 157.300781 215.800781 160.5 C 221.199219 163.699219 227.199219 165.75 233.800781 166.648438 C 239.199219 167.316406 244.433594 167.117188 249.5 166.050781 L 266.949219 179.5 L 209.851562 114.25 L 248.949219 114.199219 "
       id="path5" />
    <path
       style="stroke:none;fill-rule:evenodd;fill:rgb(13.725490%,21.176471%,28.627451%);fill-opacity:1"
       d="M 287.449219 125.300781 C 288.25 118.699219 287.800781 112.382812 286.101562 106.351562 C 284.398438 100.316406 281.667969 94.851562 277.898438 89.949219 C 274.132812 85.050781 269.535156 81.015625 264.101562 77.851562 C 258.699219 74.648438 252.714844 72.601562 246.148438 71.699219 C 239.285156 70.867188 232.714844 71.382812 226.449219 73.25 L 210.351562 64.800781 L 275.101562 124.398438 L 232.800781 123.898438 L 261.199219 162.050781 C 265.832031 159.75 270 156.765625 273.699219 153.101562 C 277.367188 149.464844 280.382812 145.300781 282.75 140.601562 C 285.148438 135.898438 286.714844 130.800781 287.449219 125.300781 "
       id="path7" />
  </g>
</svg>
