<?xml version="1.0" encoding="UTF-8" standalone="no"?>
<!-- Created with Inkscape (http://www.inkscape.org/) -->

<svg
   xmlns:dc="http://purl.org/dc/elements/1.1/"
   xmlns:cc="http://creativecommons.org/ns#"
   xmlns:rdf="http://www.w3.org/1999/02/22-rdf-syntax-ns#"
   xmlns:svg="http://www.w3.org/2000/svg"
   xmlns="http://www.w3.org/2000/svg"
   xmlns:sodipodi="http://sodipodi.sourceforge.net/DTD/sodipodi-0.dtd"
   xmlns:inkscape="http://www.inkscape.org/namespaces/inkscape"
   version="1.1"
   id="svg2"
   xml:space="preserve"
   width="409.33331"
   height="168.66666"
   viewBox="0 0 409.33331 168.66665"
   sodipodi:docname="logo-white.AI.svg"
   inkscape:version="0.92.3 (2405546, 2018-03-11)"><metadata
     id="metadata8"><rdf:RDF><cc:Work
         rdf:about=""><dc:format>image/svg+xml</dc:format><dc:type
           rdf:resource="http://purl.org/dc/dcmitype/StillImage" /><dc:title /></cc:Work></rdf:RDF></metadata><defs
     id="defs6"><clipPath
       clipPathUnits="userSpaceOnUse"
       id="clipPath20"><path
         d="M 0,126.5 H 307 V 0 H 0 Z"
         id="path18"
         inkscape:connector-curvature="0" /></clipPath></defs><sodipodi:namedview
     pagecolor="#ffffff"
     bordercolor="#666666"
     borderopacity="1"
     objecttolerance="10"
     gridtolerance="10"
     guidetolerance="10"
     inkscape:pageopacity="0"
     inkscape:pageshadow="2"
     inkscape:window-width="1366"
     inkscape:window-height="713"
     id="namedview4"
     showgrid="false"
     inkscape:zoom="0.76699203"
     inkscape:cx="-45.817813"
     inkscape:cy="76.397766"
     inkscape:window-x="0"
     inkscape:window-y="27"
     inkscape:window-maximized="1"
     inkscape:current-layer="g10" /><g
     id="g10"
     inkscape:groupmode="layer"
     inkscape:label="Quick Brothers Logo DP FRONT"
     transform="matrix(1.3333333,0,0,-1.3333333,-1.2342262,167.1141)"><path
   d="M 0.92566967,-1.1644195 H 307.92567 V 125.33558 H 0.92566967 Z"
   style="fill:none;fill-opacity:1;fill-rule:nonzero;stroke:none"
   id="path12"
   inkscape:connector-curvature="0" /><g
   id="g14"
   transform="matrix(1.7453288,0,0,1.7420807,-227.89027,-1.16442)"><g
     id="g16"
     clip-path="url(#clipPath20)"><path
       d="M 310,-22.5 H -2 v 154.75 h 312 z"
       style="fill:none;stroke:#d1d3d4;stroke-width:1;stroke-linecap:butt;stroke-linejoin:miter;stroke-miterlimit:10;stroke-dasharray:none;stroke-opacity:1"
       id="path22"
       inkscape:connector-curvature="0" /><g
       id="g24"
       transform="translate(166.0957,35.3999)"><path
         d="m 0,0 c -0.561,-0.185 -0.852,0.163 -1.2,0.435 -1.727,1.345 -9.12,7.061 -9.781,7.581 -0.594,0.468 -1.409,0.424 -2.141,0.293 -1.493,-0.267 -2.998,-0.371 -4.509,-0.393 -11.571,-0.267 -34.104,6.838 -37.276,33.961 -0.04,2.14 -0.012,4.277 0.125,6.412 2.023,15.374 12.009,23.503 16.833,26.556 0.693,0.552 1.531,0.458 2.044,-0.292 0.755,-1.103 23.035,-25.744 23.096,-25.873 0.364,-0.761 0.232,-1.017 -0.607,-1.032 -1.585,-0.028 -26.552,-0.05 -26.761,-0.107 -0.381,-0.104 -0.566,-0.36 -0.373,-0.748 C -40.388,46.465 -1.051,1.133 0,0"
         style="fill:#948230;fill-opacity:1;fill-rule:nonzero;stroke:none"
         id="path26"
         inkscape:connector-curvature="0" /></g><g
       id="g28"
       transform="translate(173.3232,76.0488)"><path
         d="m 0,0 c -1.323,1.218 -44.477,42.099 -44.249,42.05 0.213,-0.046 0.432,-0.11 0.623,-0.212 1.359,-0.728 2.712,-1.466 4.066,-2.203 0.805,-0.438 1.638,-0.822 2.446,-1.256 1.174,-0.631 2.389,-0.141 3.53,0.246 C -8.326,43.178 3.087,25.149 4.861,22.374 15.552,5.345 6.821,-11.08 6.531,-11.76 5.183,-14.22 1.596,-21.157 -8.296,-27.858 c -1.446,-0.917 -2.098,-0.823 -2.985,0.569 -0.968,1.519 -18.777,25.541 -19.227,26.042 -0.305,0.341 -0.116,0.717 0.341,0.814 0.248,0.053 26.09,-0.167 28.854,-0.194 C -0.767,-0.633 -0.298,-0.521 0,0"
         style="fill:#20345c;fill-opacity:1;fill-rule:nonzero;stroke:none"
         id="path30"
         inkscape:connector-curvature="0" /></g></g></g><text
   transform="scale(1,-1)"
   style="font-variant:normal;font-weight:900;font-stretch:normal;font-size:29.9436512px;font-family:'Arial Black';-inkscape-font-specification:Arial-Black;writing-mode:lr-tb;fill:#000000;fill-opacity:1;fill-rule:nonzero;stroke:none;stroke-width:1.10000002"
   id="text34"
   x="-4.0485902"
   y="-13.012314"><tspan
     sodipodi:role="line"
     id="tspan25"
     x="-4.0485902"
     y="-13.012314"
     style="fill:#000000">QUICKBROTHERSINC</tspan></text>


</g></svg>