<?xml version="1.0" encoding="UTF-8" standalone="no"?>
<svg
   xmlns:dc="http://purl.org/dc/elements/1.1/"
   xmlns:cc="http://creativecommons.org/ns#"
   xmlns:rdf="http://www.w3.org/1999/02/22-rdf-syntax-ns#"
   xmlns:svg="http://www.w3.org/2000/svg"
   xmlns="http://www.w3.org/2000/svg"
   xmlns:sodipodi="http://sodipodi.sourceforge.net/DTD/sodipodi-0.dtd"
   xmlns:inkscape="http://www.inkscape.org/namespaces/inkscape"
   width="480pt"
   height="290pt"
   viewBox="0 0 480 290"
   version="1.1"
   id="svg2"
   inkscape:version="0.92.3 (2405546, 2018-03-11)"
   sodipodi:docname="SVGlogo-big.svg">
  <metadata
     id="metadata16">
    <rdf:RDF>
      <cc:Work
         rdf:about="">
        <dc:format>image/svg+xml</dc:format>
        <dc:type
           rdf:resource="http://purl.org/dc/dcmitype/StillImage" />
        <dc:title></dc:title>
      </cc:Work>
    </rdf:RDF>
  </metadata>
  <defs
     id="defs14" />
  <sodipodi:namedview
     pagecolor="#ffffff"
     bordercolor="#666666"
     borderopacity="1"
     objecttolerance="10"
     gridtolerance="10"
     guidetolerance="10"
     inkscape:pageopacity="0"
     inkscape:pageshadow="2"
     inkscape:window-width="1366"
     inkscape:window-height="713"
     id="namedview12"
     showgrid="false"
     inkscape:zoom="0.49"
     inkscape:cx="584.30676"
     inkscape:cy="122.06279"
     inkscape:window-x="0"
     inkscape:window-y="27"
     inkscape:window-maximized="1"
     inkscape:current-layer="g3718" />
  <g
     id="g3718"
     transform="matrix(2.48832,0,0,2.48832,-354.0979,-155.77846)">
    <path
       id="path3714"
       d="M 248.94922,114.19922 216.25,77.601562 c -4.19922,2.398438 -7.96484,5.382813 -11.30078,8.949219 -3.30078,3.53125 -6.03125,7.53125 -8.19922,12 -2.13281,4.464849 -3.55078,9.281249 -4.25,14.449219 -0.80078,6.60156 -0.35156,12.91797 1.35156,18.94922 1.69922,6.03515 4.4336,11.5 8.19922,16.40234 3.76563,4.89844 8.34766,8.94922 13.75,12.14844 5.39844,3.19922 11.39844,5.25 18,6.14844 5.39844,0.66797 10.63281,0.46875 15.69922,-0.59766 l 17.44922,13.44922 -57.09766,-65.25 39.09766,-0.0508"
       style="fill:#ffffff;fill-opacity:1;fill-rule:evenodd;stroke:none"
       inkscape:connector-curvature="0" />
    <path
       id="path3716"
       d="m 287.44922,125.30078 c 0.80078,-6.60156 0.35156,-12.91797 -1.34766,-18.94922 -1.70312,-6.03515 -4.43359,-11.499998 -8.20312,-16.402341 -3.76563,-4.898438 -8.36328,-8.933594 -13.79688,-12.097657 -5.40234,-3.203124 -11.38672,-5.25 -17.95312,-6.152343 -6.86328,-0.832031 -13.4336,-0.316407 -19.69922,1.550781 l -16.09766,-8.449219 64.75,59.597659 -42.30078,-0.5 28.39844,38.15234 c 4.63281,-2.30078 8.80078,-5.28516 12.5,-8.94922 3.66797,-3.63672 6.68359,-7.80078 9.05078,-12.5 2.39844,-4.70312 3.96484,-9.80078 4.69922,-15.30078"
       style="fill:#ffffff;fill-opacity:1;fill-rule:evenodd;stroke:none"
       inkscape:connector-curvature="0" />
  </g>
</svg>
